<svg width="20" height="19" viewBox="0 0 20 19" fill="none" xmlns="http://www.w3.org/2000/svg">
<rect x="1.28613" y="18" width="17" height="17" rx="4" transform="rotate(-90 1.28613 18)" fill="white"/>
<path d="M8.60547 6.19407L11.911 9.49962L8.60547 12.8052" stroke="#1E9EA6" stroke-width="1.5" stroke-linecap="round" stroke-linejoin="round"/>
<path d="M9.78613 18C5.77885 18 3.77569 18 2.53091 16.7552C1.28613 15.5104 1.28613 13.5063 1.28613 9.5C1.28613 5.49272 1.28613 3.48956 2.53091 2.24478C3.77569 1 5.7798 1 9.78613 1C13.7934 1 15.7966 1 17.0414 2.24478C18.2861 3.48956 18.2861 5.49367 18.2861 9.5C18.2861 13.5073 18.2861 15.5104 17.0414 16.7552C15.7966 18 13.7925 18 9.78613 18Z" stroke="#1E9EA6" stroke-width="1.5" stroke-linecap="round" stroke-linejoin="round"/>
</svg>
