<?xml version="1.0" encoding="UTF-8"?>
<svg version="1.1" viewBox="0 0 1268 968" width="1280" height="1280" xmlns="http://www.w3.org/2000/svg">
<path transform="translate(0)" d="m0 0h1268v968h-1268z" fill="#F9FAF9"/>
<path transform="translate(580)" d="m0 0h688v966h-131l-4-20-6-11-10-11-8-5 2-5 9-12 9-16 6-15 5-17 3-18v-27l-3-18-5-17-8-18-7-12-2-5-15-16-12-12-14-10-14-8-20-8-15-4-22-4-25 2-17 3-21 7-16 8-5 3-3-1v-163l3-7 8-14 11-18 11-14 9-10 12-10 16-8 7-2h13l13 3 11 6 11 9 6 7 5 5 7 8 12 18 12 21 13 29 11 30 7 22 7 30 4 22 1 9v27l-3 16-4 14v3l6-21 2-11v-29l-4-25-5-23-8-30-11-30-10-24-10-19-8-14-8-12-10-13-14-14-10-7-10-5-12-3h-14l-10 3-15 8-13 11-9 10-11 15-11 18-6 11h-1l-1-5-1-231-2-9-3-1-20-1-4-4-2-4-5-2-10-1-1-1v-63h-132l-4-1-1-115-1-31-1-2-11-1h-139l-1-1-1-16z" fill="#F9FAF9"/>
<path transform="translate(0)" d="m0 0h530l-1 55-32 2-5 4-1 9v135l-132 2-5 5 2 3 1 7v47l-15 3-3 3-3 5-2 1-19 1-5 2-1 196-4-2-4-5-14-11-16-8-10-2-11-1-3-3-2-5-9-10-9-8-10-6-16-6-10-2h-20l-17 4-16 8-11 8-10 11-7 11-7 19-2 15 1 15 4 16 8 17 9 11 10 9 16 9 6 1-2 10-11 34-8 32-4 26-1 26 2 18 4 15 7 17 8 14 13 16 10 10 14 10 14 8 17 6 17 4 15 2 4 2 7-2 22-3 12-3 10-4 4 1v129l1 26 2 4 5 1-1 2h-83l-2-4-3-17-5-9-9-10-8-6-11-5-4-1h-26l-13 5-11 8-9 13-5 11-1 3-1 11-1 1h-124z" fill="#F9FAF9"/>
<path transform="translate(530)" d="m0 0h50l1 39 1 16h139l11 1 2 3 1 31v115h126l10 1 1 63 13 2 4 4 2 4 2 1 20 1 4 2 1 5v212h-1l-1-6v-199l-1-11-24-1-3-3-4-6-2-1-14-1v-64h-64l-446 1 1 7v55l-13 2-6 4-3 5-4 1-21 1v673l1 4 8 1h227l1-121 3-5 6-2 20-1h29l21 1h30l11 1 4 2 3 6 1 119h231l3-1 3-5 3-13-4-2-11-10-8-7-12-14-10-16-10-21-6-21-3-22v-15l3-21 5-19 8-19 10-16 11-14 15-15 8-6 1-2h2v-171l2-7 1 2-1 4h2l2-6 8-15 12-18 9-11 9-10 13-10 15-8 8-2h14l12 3 12 6 11 9 14 14 12 17 11 18 15 30 13 34 7 21 9 37 4 24 1 7v29l-4 19-5 15-2 2 2-12 3-9 3-16v-27l-4-26-6-27-8-27-10-28-13-30-9-17-12-19-10-13-4-4v-2l-4-2-4-4v-2l-4-2-10-8-11-5-10-2h-13l-14 5-10 6-13 11-8 9-13 18-8 14-9 15-1 4v163l5-2 16-8 17-6 10-3 13-2 25-2 31 6 19 7 16 8 15 10 12 11 14 14 5 6 2 2 3 7 9 17 7 19 4 18 1 8v27l-3 18-6 20-7 16-11 18-7 9v2l9 6 10 11 5 10 3 13v7h131v2h-1268v-2l124-1 1-11 5-12 7-11 5-6 14-9 9-3h26l11 4 10 6 10 10 6 10 3 11 2 11h81l-3-1-2-5-1-26v-129l-5 1-11 4-21 4-16 2-2 1v-2l-18-2-21-5-13-5-19-11-13-11-10-10-10-13-6-10-7-16-5-15-2-11-1-12 1-26 4-26 9-36 12-37v-2l-9-3-13-8-10-9-9-11-9-19-3-14-1-15 2-15 7-19 7-11 12-13 10-7 16-8 17-4h20l10 2 12 4 14 8 12 11 8 9 2 5 1 1 17 2 13 5 11 7 14 12v2l3 1 1-195 2-2 4-1 19-1 3-2 3-5 2-2 9-2h6l-1-47-1-7-2-3 4-5 2-1 69-1h63l-1-2v-133l1-9 6-5 13-1h19v-51z" fill="#45495C"/>
<path transform="translate(996,451)" d="m0 0h14l12 3 12 6 11 9 14 14 12 17 11 18 15 30 13 34 7 21 9 37 4 24 1 7v29l-4 19-5 15-2 2 2-12 3-9 3-16v-27l-4-26-6-27-8-27-10-28-13-30-9-17-12-19-10-13-4-4v-2l-4-2-4-4v-2l-4-2-10-8-11-5-10-2h-13l-14 5-10 6-13 11-8 9-13 18-8 14-9 15-1 4v163l5-2 16-8 17-6 10-3 13-2 25-2 31 6 19 7 16 8 15 10 12 11 14 14 5 6 2 2 3 7 9 17 7 19 4 18 1 8v27l-3 18-6 20-7 16-11 18-7 9v2l9 6 10 11 5 10 3 13v7h131v2h-715l1-3h-5v-124l3-5 6-2 20-1h29l21 1h30l11 1 4 2 3 6 1 119h231l3-1 3-5 3-13-4-2-11-10-8-7-12-14-10-16-10-21-6-21-3-22v-15l3-21 5-19 8-19 10-16 11-14 15-15 8-6 1-2h2v-171l2-7 1 2-1 4h2l2-6 8-15 12-18 9-11 9-10 13-10 15-8z" fill="#08B381"/>
<path transform="translate(253,452)" d="m0 0 9 1 11 3 10 5 10 8 10 9 5 5v317l-5 3-17 5-24 4h-14l-27-5-19-7-15-9-13-10-9-8-9-11-8-11-8-16-4-11-4-15-1-9v-30l3-22 6-27 7-24 9-28 4-1 12 2h17l15-3 15-6 11-7 10-9 9-12 7-14 4-15 1-7v-11l-2-13-5-16z" fill="#F9FAF9"/>
<path transform="translate(523,57)" d="m0 0h187l20 1 2 1 1 14v132h-240l-2-3v-39l2-100 2-4 5-1z" fill="#F9FAF9"/>
<path transform="translate(578,833)" d="m0 0h29l21 1h30l11 1 4 2 3 6v121l-4 1h-123v-124l3-5 6-2z" fill="#212F4F"/>
<path transform="translate(171,410)" d="m0 0h20l10 2 12 4 14 8 12 11 8 9 2 6-12 5-11 6-13 10-13 13-13 18-9 16-13 26-6 15-3 6-4 1-14-7-11-8-8-8-7-10-8-17-3-14-1-15 2-15 7-19 7-11 12-13 10-7 16-8z" fill="#DD3F27"/>
<path transform="translate(505,696)" d="m0 0 4 1 2 6 14 1 1 10-1 51-1 1-11 1-5 4-3 1-35 1h-67l-12-2-4-4-1-5v-52l2-9 4-4z" fill="#FC7A2D"/>
<path transform="translate(788,367)" d="m0 0 45 1 5 3 1 8v59l-3 5-6 1-112-1-5-4v-65l3-5 7-1z" fill="#C7CBCD"/>
<path transform="translate(557,368)" d="m0 0h114l4 4v67l-3 4-27 1-57-1h-32l-5-3-2-4v-60l4-7z" fill="#D0D3D5"/>
<path transform="translate(812,532)" d="m0 0 24 1 2 3 1 12v55l-4 4-4 1-114-1-2-1v-2l-3-1v-31l1-33 3-6z" fill="#C7CBCD"/>
<path transform="translate(553,533)" d="m0 0h120l2 3 1 9-1 60-4 2h-116l-6-5v-63z" fill="#C7CBCD"/>
<path transform="translate(487,532)" d="m0 0h15l9 1v7h14v61l-1 1-13 1v3l-10 2-110-1-4-4-1-6v-31h1l1 28 3 9h33l-5-2v-61l21-1 10-2-2-1h-54l-7 7 1-6 1-3 2-1z" fill="#C7CBCD"/>
<path transform="translate(452,367)" d="m0 0 43 1 16 1v3l12 3 2 1v61l-1 1-13 1v3l-4 1h-116l-4-4-1-5v-31h1l1 29 3 6 1 1 28 1 6-1-7-2v-61l9-1 41-1 17-1v-1h13l8-1h-110l-6 2-2 3h-2l1-4 3-3 2-1z" fill="#C7CBCD"/>
<path transform="translate(557,836)" d="m0 0h55v125h-60l-1-1v-53l2-1h8l-1-5-7-1-1 4-1-4v-60z" fill="#F9FAF9"/>
<path transform="translate(717,697)" d="m0 0h119l3 7v64l-3 3-4 1h-7l3-2 7-3 1-2v-65h-78l-40 1-1 3 31-1h57l2 1 1 6-1 56-19 1h-71l-2 2-4-2-10-1-1-3v-58l1-1 12-2z" fill="#FD7B2E"/>
<path transform="translate(248,452)" d="m0 0 5 1 4 9 4 15 1 9v11l-3 15-4 12-9 15-11 12-11 8-14 7-14 4-7 1h-17l-12-2-3-2 10-23 7-16 9-17 8-13 10-12 7-8 9-9 14-9z" fill="#DD3F27"/>
<path transform="translate(582,703)" d="m0 0h81l3 1v61l-1 1-14 1h-65l-25-1-2-6v-53l2-3z" fill="#FC7A2D"/>
<path transform="translate(1041,731)" d="m0 0h7l7 6 2 5v8l-6 12-12 19-8 14-11 23-7 16-10 28-11 41-4 8-6 4h-7l-5-5-6-12-11-33-13-36v-9l3-6 6-5h7l6 4 7 18 7 20 2 2 7-19 9-25 16-32 9-16 12-19 6-8z" fill="#F9FAF9"/>
<path transform="translate(530)" d="m0 0h50l1 39 1 16h139l11 1 2 3 1 31v115h126l10 1 1 63 13 2 4 4 2 4 2 1 20 1 4 2 1 5v212h-1l-1-6v-199l-1-11-24-1-3-3-4-6-2-1-14-1v-64h-492v-1l52-1v-1h63l-1-2v-133l1-9 6-5 13-1h19v-51zm-7 57-23 1-6 2-1 3-2 100v39l2 3h240v-139l-1-7-4-1-18-1z" fill="#424559"/>
<path transform="translate(165,915)" d="m0 0h26l11 4 9 6 8 8 8 14 2 7 1 10-1 1h-49l-1-1v-28h-2v14l-4-1-11-9-2-1 5 6 8 6 3 2 1 4v8h-51l1-10 4-11 9-14 9-8 9-5z" fill="#F7F8F7"/>
<path transform="translate(758,699)" d="m0 0h74l4 1 1 5v60l-5 5-4 1h8l-3 2-6 1h-94l-13-1v-2l-4-1 1-4h90v-62h-90v-4z" fill="#F5F6F6"/>
<path transform="translate(394,699)" d="m0 0h113l-1 4-88 1 1 43 1 18 14 1h73v4h-111l-5-2-2-3-1-12v-25l1-24 2-4z" fill="#F4F5F5"/>
<path transform="translate(397,370)" d="m0 0h110l1 2-12 1h-9v1l-23 1-45 1v61l7 1 13 1v1l-24 1-23-1-3-3-2-5h-2v-54l1-5 1 3 6-5z" fill="#F7F8F7"/>
<path transform="translate(555,697)" d="m0 0h118l2 2v68l-3 4-3 1-15 1h-53l-46-1-4-2-2-7v-57l3-8zm27 6-21 1-2 3v53l2 6 25 1h65l14-1 1-1v-61l-3-1z" fill="#EEEFEE"/>
<path transform="translate(532,2)" d="m0 0h45l1 3v49l-3 1h-40l-4-1v-50z" fill="#F7F8F8"/>
<path transform="translate(165,913)" d="m0 0h26l11 4 10 6 10 10 6 10 3 11 2 11h81l-3-1-1-4 2-3 1 4 8 1h228v3h5l-1 3h-553v-2l124-1 1-11 5-12 7-11 5-6 14-9zm0 2-11 4-11 8-6 7-8 14-3 12v5h51v-8l-2-5-6-4-8-7-1-2 8 6 6 5h3v-14h2v28l1 1h49l1-2-2-13-7-14-9-10-8-6-9-4-4-1z" fill="#606270"/>
<path transform="translate(701,218)" d="m0 0h46l-1 53-1 1h-43l-1-1z" fill="#F8F9F8"/>
<path transform="translate(645,218)" d="m0 0h46v53l-1 1h-44z" fill="#F5F7F6"/>
<path transform="translate(425,218)" d="m0 0h46l-1 53-1 1h-44z" fill="#F8F9F8"/>
<path transform="translate(722,370)" d="m0 0h107l7 1 1 4-1 65h-34l2-2h3v-63h-86v-2h-4v-2z" fill="#F6F8F7"/>
<path transform="translate(370,218)" d="m0 0h45v53l-8 1h-37z" fill="#F6F7F6"/>
<path transform="translate(766,218)" d="m0 0h36l-1 54h-44l-1-1v-33l1-19z" fill="#F7F8F7"/>
<path transform="translate(538,218)" d="m0 0h42v53l-1 1h-43v-53z" fill="#F6F8F7"/>
<path transform="translate(482,218)" d="m0 0h43v53l-1 1h-43l-1-53z" fill="#F8F9F8"/>
<path transform="translate(814,218)" d="m0 0h42v54h-43l-1-35v-18z" fill="#F8F9F8"/>
<path transform="translate(592,218)" d="m0 0h43l1 2-1 51-1 1h-42z" fill="#F5F7F6"/>
<path transform="translate(717,535)" d="m0 0h118l2 3v20l-1 46h-33l3-3 1-61-19-1-6-1h-36l-2 1h-17l-10-2z" fill="#F9FAF9"/>
<path transform="translate(917,944)" d="m0 0 5 2 19 10 17 7 1 3h4v2h-410l1-3 122-1 1-2h231l3-1 3-5z" fill="#626472"/>
<path transform="translate(394,535)" d="m0 0h54l36 1v1l-36 1-8 2h-21v61l5 1 1 2h-34l-1-1v-62l2-5z" fill="#F9FAF9"/>
<path transform="translate(1107,920)" d="m0 0 10 6 7 7 6 10 4 11 1 11h-50l-2-2v-11l1-6h-2v5l-5-2 4 6 1 10h-47l2-2 17-6 21-10 5-4 5-3 15-14h2v-2z" fill="#F7F8F7"/>
<path transform="translate(557,535)" d="m0 0h114l2 3v64l-1 2h-23v-1l13-1 3-2 1-60h-12l-19-1-2-1-29-1v2l-4 1-39 1-1 60h13l34 2v1h-55l-1-8v-53l2-7z" fill="#F6F7F6"/>
<path transform="translate(996,451)" d="m0 0h14l12 3 12 6 11 9 14 14 12 17 11 18 15 30 13 34 7 21 9 37 4 24 1 7v29l-4 19-5 15-2 2 2-12 3-9 3-16v-27l-4-26-6-27-8-27-10-28-13-30-9-17-12-19-10-13-4-4v-2l-4-2-4-4v-2l-4-2-10-8-11-5-10-2h-13l-14 5-10 6-13 11-8 9-13 18-8 14-9 15-1 4-1 165-3 1v-170l2-7 1 2-1 4h2l2-6 8-15 12-18 9-11 9-10 13-10 15-8z" fill="#31354D"/>
<path transform="translate(487,532)" d="m0 0h15l9 1v7h14v61l-1 1-13 1v3l-10 2-110-1-4-4-1-6v-31h1l1 28 3 9 2 1 31 1h61l23-1 1-18v-44l-1-4 1-3-115 1-7 7 1-6 1-3 2-1z" fill="#C7CBCD"/>
<path transform="translate(452,367)" d="m0 0 43 1 16 1v3l12 3 2 1v61l-1 1-13 1v3l-4 1h-116l-4-4-1-5v-31h1l1 29 3 6 3 2 20 1h68l26-1 1-17v-52h-112l-6 2-2 3h-2l1-4 3-3 2-1z" fill="#C7CBCD"/>
<path transform="translate(246,450)" d="m0 0h2v3l-19 9-14 10-12 12-10 13-6 9-5 9-8 16-12 26-8 21-11 35-7 30-3 18-1 9v30l2 13 6 20 8 16 6 9 9 11 4 5 8 7 13 10 16 9 17 6 27 5h14l24-4 17-5h2v2l-13 5-21 4-16 2-2 1v-2l-18-2-21-5-13-5-19-11-13-11-10-10-10-13-6-10-7-16-5-15-2-11-1-12 1-26 4-26 9-36 13-40 12-27 14-28 8-12 12-16 14-14 16-11z" fill="#2C3049"/>
<path transform="translate(165,913)" d="m0 0h26l11 4 10 6 10 10 6 10 3 11 2 11h22l33 1-2 2h-286v-2l124-1 1-11 5-12 7-11 5-6 14-9zm0 2-11 4-11 8-6 7-8 14-3 12v5h51v-8l-2-5-6-4-8-7-1-2 8 6 6 5h3v-14h2v28l1 1h49l1-2-2-13-7-14-9-10-8-6-9-4-4-1z" fill="#414355"/>
<path transform="translate(510,55)" d="m0 0h17l-1 3-26 1-5 1-1 3-2 100v23h1v19h165v1l17 1v1h-299v-1l52-1v-1h63l-1-2v-133l1-9 6-5z" fill="#474C5F"/>
<path transform="translate(735,205)" d="m0 0h126l10 1 1 63 13 2 4 4 2 4 2 1 20 1 4 2 1 5v212h-1l-1-6v-199l-1-11-24-1-3-3-4-6-2-1-14-1v-64h-133z" fill="#484D61"/>
<path transform="translate(555,697)" d="m0 0h118l2 2v68l-3 4-3 1-15 1h-53l-46-1-4-2-2-7v-57l3-8zm2 2-3 1-2 4-1 26v20l1 18 5 2h113l2-1 1-4v-63l-2-3z" fill="#616371"/>
<path transform="translate(788,367)" d="m0 0 45 1 5 3 1 8v59l-3 5-6 1-112-1-5-4v-65l3-5 7-1zm-66 3-6 2-1 5v63l3 1 55 1h39l23-1 1-1 1-65-1-4-7-1z" fill="#5E606E"/>
<path transform="translate(913,284)" d="m0 0h2l1 2 1 9v199l1-202h1l1 231 1 6-1 2h-2v-5l-1 6-1 171-2-1v-415z" fill="#C7CBCD"/>
<path transform="translate(553,533)" d="m0 0h120l2 3 1 9-1 60-4 2h-116l-6-5v-63zm4 2-4 1-2 7v53l1 8 3 1h116l2-3v-64l-2-3z" fill="#565867"/>
<path transform="translate(1109,919)" d="m0 0 8 4 8 8 6 9 4 10 2 9v7h131v2h-238l3-3h49l-3-12-3-5 4 1 1 1 1-4h2v17l1 1 50 1-4-18-6-11-9-10-8-5z" fill="#35384D"/>
<path transform="translate(717,766)" d="m0 0h90l-1 2 26 1-4 2h8l-3 2-6 1h-94l-13-1v-2l-4-1z" fill="#BFC3C5"/>
<path transform="translate(557,368)" d="m0 0h114l4 4v67l-3 4-27 1-57-1h-32l-5-3-2-4v-60l4-7zm2 2-6 2-2 7v52l1 8 5 2h114l2-2v-66l-1-2-5-1z" fill="#616371"/>
<path transform="translate(515,704)" d="m0 0h10l1 10-1 51-1 1h-11v-61z" fill="#FD7B2E"/>
<path transform="translate(701,375)" d="m0 0h12v64l-12-2z" fill="#C7CBCD"/>
<path transform="translate(708,703)" d="m0 0h4l1 62-1 1h-11l-1-3v-58l1-1z" fill="#FD7B2E"/>
<path transform="translate(812,532)" d="m0 0 24 1 2 3 1 12v55l-4 4-4 1-114-1-2-1v-2l-3-1v-31l1-33 3-6zm-95 3-1 1-1 7v58l1 3 2 1 15 1h89l12-1 2-1 1-46v-20l-2-3z" fill="#525463"/>
<path transform="translate(706,539)" d="m0 0h7v63l-2 1-10-2v-61z" fill="#C7CBCD"/>
<path transform="translate(557,535)" d="m0 0h114l2 3v64l-1 2h-23v-1l13-1 3-2 1-60h-12l-19-1-2-1v-2h-76z" fill="#EDEFEE"/>
<path transform="translate(505,696)" d="m0 0 4 1 2 5-4-2h-113l-3 1-1 3-1 24v25l1 12 2 3 4 1h113l-1 2-3 1-35 1h-67l-12-2-4-4-1-5v-52l2-9 4-4z" fill="#5F6270"/>
<path transform="translate(487,532)" d="m0 0h15l9 1 1 7v63l-1 3-10 2-110-1-4-4-1-6v-31h1l1 28 3 9 2 1 31 1h61l23-1 1-18v-44l-1-4 1-3-115 1-7 7 1-6 1-3 2-1z" fill="#5F6371"/>
<path transform="translate(452,367)" d="m0 0 43 1 16 1 1 3v67l-1 3-4 1h-116l-4-4-1-5v-31h1l1 29 3 6 3 2 20 1h68l26-1 1-17v-52h-112l-6 2-2 3h-2l1-4 3-3 2-1z" fill="#606270"/>
<path transform="translate(530)" d="m0 0h50l1 39 1 16 134 1v1l-135 1h-53l-1-3h2v-51zm2 2-1 2v50l4 1h40l3-1v-49l-1-3z" fill="#484958"/>
<path transform="translate(578,833)" d="m0 0h29l5 2v1l-55 1-5 3v63l1-3 7 1 1 5-2 1h-7v53l60 1v1h-55v2h55v1h-63v-124l3-5 6-2z" fill="#33384E"/>
<path transform="translate(918,525)" d="m0 0 1 2-1 4h2l2-6h2l-2 5-2 6-1 165-3 1v-170z" fill="#626472"/>
<path transform="translate(425,218)" d="m0 0h46l-1 53-1 1h-44zm9 2-6 1v48l3 1h35l1-1v-48l-25-1z" fill="#4D5061"/>
<path transform="translate(701,218)" d="m0 0h46l-1 53-1 1h-43l-1-1zm10 2-7 1v48l3 1h34l2-1 1-47-1-2z" fill="#5C5D6C"/>
<path transform="translate(919,945)" d="m0 0 4 2 25 12 10 4 1 3 4 1-52-1 1-4 5-6z" fill="#F6F7F7"/>
<path transform="translate(1084,941)" d="m0 0 2 4-1 19-2-1v-11l1-6h-2v5l-5-2 4 6 1 10h-47l2-2 17-6 21-10 5-4z" fill="#F7F8F7"/>
<path transform="translate(182,640)" d="m0 0 4 2 7 8 9 10 7 8 10 11 9 11 9 10 9 11 6 7 1-49h2v92l1 8 10-9 30-30v3l-37 37-4 1-1 40h-1l-1-90-7-7-9-11-9-10-9-11-11-12-7-8-11-12-7-8z" fill="#C8CBCD"/>
<path transform="translate(177,936)" d="m0 0h2l1 28 69 1 39 1-2 2h-149v-2l40-1-2-12-6-4-9-8v-2l5 2 9 8 3 1z" fill="#1E2542"/>
<path transform="translate(766,218)" d="m0 0h36l-1 54h-44l-1-1v-33l1-19zm-6 3-1 3v45l2 1h36l2-1v-43l-1-5z" fill="#5D5F6D"/>
<path transform="translate(538,218)" d="m0 0h42v53l-1 1h-43v-53zm3 2-2 1v48l1 1h35l2-1v-49z" fill="#4B4C5C"/>
<path transform="translate(246,450)" d="m0 0h2v3l-19 9-14 10-12 12-10 13-6 9-5 9-8 16-12 26-8 21-11 35-2 6h-1l1-10 14-44 12-27 14-28 8-12 12-16 14-14 16-11z" fill="#2B2E46"/>
<path transform="translate(717,697)" d="m0 0h119l3 7v64l-3 3-4 1h-7l3-2 7-3 1-2v-65h-78l-41 1-2 1 1-4z" fill="#505160"/>
<path transform="translate(610,834)" d="m0 0h48l11 1 4 2 3 6-1 10-7-6-1-4-11-2h-32l-10 6h-1l-1-12z" fill="#1E2440"/>
<path transform="translate(482,218)" d="m0 0h43v53l-1 1h-43l-1-53zm8 2-7 2v47l2 1h35l2-1v-48z" fill="#535565"/>
<path transform="translate(814,218)" d="m0 0h42v54h-43l-1-35v-18zm8 2-7 1v48l1 1h36l1-1v-49z" fill="#43475A"/>
<path transform="translate(645,218)" d="m0 0h46v53l-1 1h-44zm5 2-1 1v48l2 1h36l2-1v-47l-1-2z" fill="#5D5F6D"/>
<path transform="translate(719,601)" d="m0 0h87l-1 2 29 1v1l-12 1h-89l-15-1-1-3z" fill="#CDCDCE"/>
<path transform="translate(370,218)" d="m0 0h45v53l-8 1h-37zm9 2-7 1v47l3 2h30l8-1v-47l-2-2z" fill="#626472"/>
<path transform="translate(359,206)" d="m0 0h122v1l-105 1-18 1 1 7v55l-13 2-6 4-3 5-4 1-21 1-1 4h-1v-5l5-2 19-1 3-2 3-5 2-2 9-2h6l-1-47-1-7-2-3 4-5z" fill="#2F3750"/>
<path transform="translate(915,282)" d="m0 0 2 1 1 5v212h-1l-1-6v-199l-1-11-4-1z" fill="#626472"/>
<path transform="translate(592,218)" d="m0 0h43l1 2-1 51-1 1h-42zm5 2-3 3v46l13 1h24l2-1v-48l-1-1z" fill="#525362"/>
<path transform="translate(510,55)" d="m0 0h17l-1 3-26 1-5 1-1 3-2 100v23h1v19h-2l-1-2v-133l1-9 6-5z" fill="#616371"/>
<path transform="translate(719,437)" d="m0 0h67l18 1v1l31 1v1l-23 1h-39l-55-1-1-2h2z" fill="#D4D4D4"/>
<path transform="translate(788,367)" d="m0 0 45 1-4 2-28 1h-79l-5 1-1 5v62h-3v-65l3-5 7-1z" fill="#5E6672"/>
<path transform="translate(423,436)" d="m0 0 64 2h11l7-1 3 1v3l-26 1h-74l-14-1v-1h26l6-1z" fill="#CFCECE"/>
<path transform="translate(674,373)" d="m0 0h1v66l-3 4-27 1-57-1h-32l-5-3 2-1 4 1h114l1-1 1-63z" fill="#5F6270"/>
<path transform="translate(310,809)" d="m0 0h1v151l-2-1-1-26v-57l1-61z" fill="#4A4E5F"/>
<path transform="translate(507,599)" d="m0 0h1v6l-23 1h-61l-31-1v-1l31-1-2-2h30l8 1h42l2-1 3 1z" fill="#D0CFD0"/>
<path transform="translate(996,451)" d="m0 0h14l12 3 12 6 6 5v2l-5-2-9-6-7-3-10-2h-13l-14 5-10 6-13 11-8 9-13 18-8 14-5 8h-2l2-6 8-14 12-17 12-14 9-8 10-7 12-6z" fill="#323A50"/>
<path transform="translate(1111,587)" d="m0 0 2 3 7 25 6 25 4 24 1 7v29l-4 19-5 15-2 2 2-12 3-9 3-16v-27l-4-26-6-27-8-28z" fill="#585968"/>
<path transform="translate(837,547)" d="m0 0 2 1v55l-4 4-4 1-112-1v-2h103l14-1v-46z" fill="#616472"/>
<path transform="translate(555,697)" d="m0 0h118l2 2v12l-2 3-1-12-1-2h-117l-3 10h-1v-7l2-5z" fill="#1B223F"/>
<path transform="translate(1109,919)" d="m0 0 8 4 8 8 6 9 4 10 2 9v7h-104v-1h49l-3-12-3-5 4 1 1 1 1-4h2v17l1 1 50 1-4-18-6-11-9-10-8-5z" fill="#4F4F5E"/>
<path transform="translate(714,701)" d="m0 0 4 1-1 4-1 63-5-2 1-5v-59z" fill="#DB3F27"/>
<path transform="translate(452,367)" d="m0 0 43 1 16 1v6l-4-4h-110l-6 2-2 3h-2l1-4 3-3 2-1z" fill="#5D6672"/>
<path transform="translate(386,373)" d="m0 0 1 3 3-1v62l-2-4-3-1v-54z" fill="#C7CACC"/>
<path transform="translate(432,218)" d="m0 0h39l-1 52-3-2v-47h-39z" fill="#525361"/>
<path transform="translate(505,696)" d="m0 0 4 1 2 5-4-2h-113l-5 2 1-4 2-1z" fill="#1D2340"/>
<path transform="translate(916,559)" d="m0 0h1l1 13v59l1 52v18l-3 1z" fill="#474858"/>
<path transform="translate(573,601)" d="m0 0h38l38 1v2h22v1h-116v-1l38-1-20-1z" fill="#CECDCE"/>
<path transform="translate(554,965)" d="m0 0h24l89 1-3 2h-111z" fill="#C6CACC"/>
<path transform="translate(390,538)" d="m0 0 1 3-1 60-2-4-1-7-1 6h-1v-51l1-6 2 3z" fill="#C5C8CA"/>
<path transform="translate(552,205)" d="m0 0h106v1l17 1v1h-113v-1l-10-1z" fill="#606270"/>
<path transform="translate(177,936)" d="m0 0h2l1 28 19 1v1h-16v2h-46v-2l40-1-2-12-6-4-9-8v-2l5 2 9 8 3 1z" fill="#232742"/>
<path transform="translate(509,702)" d="m0 0 6 2-2 1v62l-2 2h-3l1-34z" fill="#DB3F27"/>
<path transform="translate(757,219)" d="m0 0 4 1-1 4-1 45h42v3h-44l-1-1v-33z" fill="#4A4F62"/>
<path transform="translate(386,566)" d="m0 0h1l1 28 3 9 2 1 31 1h82l3 2-9 1-109-1-4-4-1-6z" fill="#626472"/>
<path transform="translate(448,535)" d="m0 0h55l3 2-4 2-22 1h-40v-1l10-2z" fill="#D5D0D0"/>
<path transform="translate(717,766)" d="m0 0h90l-2 3h-89z" fill="#DBD7D7"/>
<path transform="translate(309,704)" d="m0 0h1l1 13v92l-1 6h-1l-1-11-3-1v-2l3-2z" fill="#1C223F"/>
<path transform="translate(549,706)" d="m0 0 3 1v43l1 18 4 1 26 2v1h-28l-4-2-2-7z" fill="#3F4357"/>
<path transform="translate(482,218)" d="m0 0 4 2h-2l-1 49h40v-6h1l1 8-1 1h-43l-1-53z" fill="#363D53"/>
<path transform="translate(717,535)" d="m0 0h106v1l-77 2-2 1h-17l-10-2z" fill="#E6E7E7"/>
<path transform="translate(529,24)" d="m0 0h1l1 29 4 1h44l2 4h-53l-1-3h2z" fill="#2E324B"/>
<path transform="translate(549,917)" d="m0 0h1l1 31 1 12 60 1v1h-55v2h55v1h-63z" fill="#3D3F51"/>
<path transform="translate(717,700)" d="m0 0h2v2l2-1h79v2l-52 1h-31z" fill="#D4CFCF"/>
<path transform="translate(565,606)" d="m0 0 104 1v1l-32 1h-73l-9-1v-1z" fill="#CCCCCE"/>
<path transform="translate(658,205)" d="m0 0h73l-1 3h-55l-20-1z" fill="#323A53"/>
<path transform="translate(140,928)" d="m0 0 2 1-8 11-5 11-3 14h40v1h-29v2h-22l-29-1v-1l38-1 1-11 5-12 7-11z" fill="#2C344D"/>
<path transform="translate(584,55)" d="m0 0h137l11 1 2 4-1 6h-1v-7l-22-1v-1l-126-1z" fill="#626472"/>
<path transform="translate(743,218)" d="m0 0h4l-1 53h-26v-1l23-1v-47l-1-3z" fill="#565765"/>
<path transform="translate(303,802)" d="m0 0h2v2l-13 5-21 4-16 2-2 1v-2l-18-2-17-4 1-2 29 5h14l24-4z" fill="#2F384E"/>
<path transform="translate(578,833)" d="m0 0h29l5 2v1l-55 1-5 3-1 15h-2v-14l3-5 6-2z" fill="#43485C"/>
<path transform="translate(723,537)" d="m0 0 4 1h17l2-1h36l19 2v1l-84 1v-3z" fill="#D5D0D0"/>
<path transform="translate(400,606)" d="m0 0 100 1v1l-38 1h-61l-10-1v-1z" fill="#C8CBCD"/>
<path transform="translate(716,369)" d="m0 0h28v1l-22 1-5 1-1 5v62h-3v-65z" fill="#494958"/>
<path transform="translate(717,371)" d="m0 0h57l-2 3-20 1h-31v-2h-4z" fill="#F9FAF9"/>
<path transform="translate(580,39)" d="m0 0h1l1 16 134 1v1h-135l-3-3v-11h2z" fill="#343C53"/>
<path transform="translate(715,535)" d="m0 0 2 1-1 7v61l3 1v2l-4-1v-2l-3-1v-31l1-33z" fill="#4C4D5C"/>
<path transform="translate(832,699)" d="m0 0h5l2 5v64l-3 3-4 1h-7l3-2 7-3 1-2v-65z" fill="#525363"/>
<path transform="translate(564,442)" d="m0 0h24l57 1v1l-36 1h-45l-8-1v-1z" fill="#CACCCD"/>
<path transform="translate(139,616)" d="m0 0 2 3-4 19-4 23-1 9-1 25h-1l-1-12v-16l4-26z" fill="#515260"/>
<path transform="translate(672,533)" d="m0 0 3 3 1 9-1 60-2 1h-6l4-2 1-2v-64l-1-3z" fill="#585D6C"/>
<path transform="translate(391,533)" d="m0 0h96v1l-59 1-34 1-7 7 1-6 1-3z" fill="#50505F"/>
<path transform="translate(553,533)" d="m0 0 3 1 1 2h-4l-1 7v61l-3-2v-63z" fill="#616371"/>
<path transform="translate(388,701)" d="m0 0 2 1-1 26v36l-3-2v-52z" fill="#616270"/>
<path transform="translate(814,218)" d="m0 0h31l-1 2-29 1v48h-1l-1-23h-1v-27z" fill="#4A4D5E"/>
<path transform="translate(248,450)" d="m0 0 19 2 13 5 11 7 14 12v2l5 2-4 2-10-10-13-10-12-6-16-3-7-1z" fill="#3A4155"/>
<path transform="translate(869,236)" d="m0 0h1l1 32 1 1 13 2 4 4 2 4 2 1 20 1 2 2-7 1-17-1-3-3-4-6-2-1-14-1z" fill="#373E53"/>
<path transform="translate(613,960)" d="m0 0h2v2h9l4 2h-71v-2l55-1z" fill="#1B203D"/>
<path transform="translate(837,547)" d="m0 0 2 1v55l-3-1v-44z" fill="#626472"/>
<path transform="translate(307,481)" d="m0 0h4v65h-2l-1-62z" fill="#21304F"/>
<path transform="translate(716,698)" d="m0 0h88v1l-87 2-2 1z" fill="#1E2A49"/>
<path transform="translate(1109,919)" d="m0 0 8 4 8 8 6 9 4 10 2 9v7h-11v-1h9l-4-18-6-11-9-10-8-5z" fill="#505263"/>
<path transform="translate(128,683)" d="m0 0h2l3 26 6 22 2 6-2 2-7-20-3-14-1-12z" fill="#3A4056"/>
<path transform="translate(357,255)" d="m0 0h1l1 16-13 2-6 4-3 5-4 1-21 1-1 4h-1v-5l5-2 19-1 3-2 3-5 2-2 9-2h6z" fill="#272C46"/>
<path transform="translate(604,537)" d="m0 0h29l3 1 18 1v1h-54l4-1z" fill="#D5D0D0"/>
<path transform="translate(632,218)" d="m0 0 4 1-1 52h-9v-1l7-1z" fill="#393C51"/>
<path transform="translate(766,218)" d="m0 0h36l-1 6-3-2-38-1 1-2z" fill="#535362"/>
<path transform="translate(538,218)" d="m0 0 4 2-3 1 1 50h-3l-1-52z" fill="#1E2948"/>
<path transform="translate(689,219)" d="m0 0h2v52h-7l3-2h2l-1-9z" fill="#212845"/>
<path transform="translate(524,222)" d="m0 0h1v42h-1l-1 5h-1v-46z" fill="#5D5F6D"/>
<path transform="translate(413,218)" d="m0 0h2v53h-7l4-2z" fill="#31374F"/>
<path transform="translate(996,451)" d="m0 0h14l12 3 12 6 6 5v2l-5-2-9-6-7-3-10-2h-13l-7 1 3-3z" fill="#2D3049"/>
<path transform="translate(870,209)" d="m0 0h1v59h-1l-1-10h-1v-40z" fill="#565766"/>
<path transform="translate(154,568)" d="m0 0h2l-1 7-12 38-2 6h-1l1-10z" fill="#31354D"/>
<path transform="translate(173,527)" d="m0 0 1 4-12 26-5 12-2-1 1-5 11-25z" fill="#2A2D46"/>
<path transform="translate(549,706)" d="m0 0 3 1v23l-1 3-1 30h-1z" fill="#4F505E"/>
<path transform="translate(701,218)" d="m0 0h42l-2 3h-36l-3-2v5h-1z" fill="#626472"/>
<path transform="translate(370,218)" d="m0 0h43l-1 4-1-1h-39l-1 3h-1z" fill="#5B5C6B"/>
<path transform="translate(213,926)" d="m0 0 4 2 8 9 4 8 3 17v3l-3-1-2-14-7-14-7-8z" fill="#2D3149"/>
<path transform="translate(757,219)" d="m0 0 4 1-1 4-1 43h-2z" fill="#1E2A47"/>
<path transform="translate(645,218)" d="m0 0h46l-2 1-1 3v-2l-38 1-4 2z" fill="#535463"/>
<path transform="translate(523,263)" d="m0 0h1l1 8-1 1h-43l2-3h40z" fill="#5D5E6C"/>
<path transform="translate(249,965)" d="m0 0 39 1-2 2h-54v-1h17z" fill="#393F55"/>
<path transform="translate(432,218)" d="m0 0h35v3h-39z" fill="#585968"/>
<path transform="translate(913,961)" d="m0 0 2 2 37 1 6-1 1 3 4 1-52-1 1-4z" fill="#C8CBCD"/>
<path transform="translate(593,268)" d="m0 0 33 2 8 1v1h-42z" fill="#555665"/>
<path transform="translate(1129,689)" d="m0 0h2v11l-4 19-5 15-2 2 2-12 3-9 3-16z" fill="#4F5564"/>
<path transform="translate(592,218)" d="m0 0h40v2l-37 1-1 3-2-2z" fill="#474858"/>
<path transform="translate(637,368)" d="m0 0h34l4 4-2 4-1-5-40-1v-1z" fill="#5F616F"/>
<path transform="translate(743,242)" d="m0 0h1l1 12h1v17h-26v-1l23-1z" fill="#3E4256"/>
<path transform="translate(735,205)" d="m0 0 13 1 56 1v1h-69z" fill="#5D5F6D"/>
<path transform="translate(371,269)" d="m0 0h41l-4 2-1 1h-37z" fill="#4B5063"/>
<path transform="translate(510,55)" d="m0 0h17l-1 3-26 1-5 1-2 2 1-4 3-2z" fill="#444C60"/>
<path transform="translate(530)" d="m0 0 9 1v1h-7l-1 51h-1l-1-29v-20z" fill="#3B4056"/>
<path transform="translate(1097,555)" d="m0 0 3 1 10 26 1 9-2-2-9-25z" fill="#373B52"/>
<path transform="translate(279,965)" d="m0 0h32v3h-25v-1l-7-1z" fill="#585967"/>
<path transform="translate(486,372)" d="m0 0h22l-1 3h-38v-1l17-1z" fill="#D5D0D0"/>
<path transform="translate(219,806)" d="m0 0 29 5h6l2 2-3 3v-2l-18-2-17-4z" fill="#3D4257"/>
<path transform="translate(812,532)" d="m0 0 24 1 2 3 1 11h-2l-1-9-1-2h-12l-12-1z" fill="#42515C"/>
<path transform="translate(814,223)" d="m0 0h1v46h-1l-1-23h-1v-21z" fill="#5B5C6B"/>
<path transform="translate(285,462)" d="m0 0 5 1 15 13v2l5 2-4 2-10-10-11-9z" fill="#383E55"/>
<path transform="translate(555,697)" d="m0 0h28v1l-29 2-3 10h-1v-7l2-5z" fill="#2B3550"/>
<path transform="translate(1084,523)" d="m0 0 2 3 8 16 5 12h-3l-12-26z" fill="#34384E"/>
<path transform="translate(166,965)" d="m0 0 6 1-2 2h-33v-2z" fill="#1B203D"/>
<path transform="translate(674,923)" d="m0 0h1l1 41h-8l3-5h2v-24z" fill="#1B203D"/>
<path transform="translate(1126,655)" d="m0 0h2l2 9 1 7v18h-2l-2-26z" fill="#626472"/>
<path transform="translate(1040,466)" d="m0 0 4 2 15 15v2l-4-1-3-3v-2l-4-2-4-4v-2l-4-2z" fill="#393F55"/>
<path transform="translate(386,403)" d="m0 0h1l1 29 3 6 6 4v1h-6l-4-4-1-5z" fill="#626472"/>
<path transform="translate(139,616)" d="m0 0 2 3-4 19-2 10h-2v-7z" fill="#474A5C"/>
<path transform="translate(188,499)" d="m0 0h2l-2 5-6 11-7 13-2-2 11-21z" fill="#2F3248"/>
<path transform="translate(937,499)" d="m0 0 2 3-14 23h-2l2-6 8-14z" fill="#353A51"/>
<path transform="translate(190,793)" d="m0 0 5 2 14 7 10 4v1l-8-1-11-5-11-6z" fill="#30354D"/>
<path transform="translate(1111,587)" d="m0 0 2 3 6 21v7l-2-2-6-21-1-4z" fill="#505261"/>
<path transform="translate(915,282)" d="m0 0 2 1 1 5v44h-1l-1-37-1-11-4-1z" fill="#5F616F"/>
<path transform="translate(391,533)" d="m0 0h34v1l-27 1-7 3-3 5-1-4 2-5z" fill="#434658"/>
<path transform="translate(1082,946)" d="m0 0h2v17l1 2h-3l-3-12-3-5 4 1 1 1z" fill="#626472"/>
<path transform="translate(359,206)" d="m0 0h9l8 1v1l-18 1 1 5-1 1-1 7h-1l-1-7-2-3 4-5z" fill="#47515D"/>
<path transform="translate(493,532)" d="m0 0h9l9 1v6l-2-1v-3h-21v-2z" fill="#3D5860"/>
<path transform="translate(131,710)" d="m0 0 2 4 3 7 4 12 1 4-2 2-7-20z" fill="#343950"/>
<path transform="translate(819,206)" d="m0 0h52l-1 6-2-4-49-1z" fill="#1F2D4A"/>
<path transform="translate(386,566)" d="m0 0h1l1 28 3 9 3 3-5-1-2-2-1-6z" fill="#5E606E"/>
<path transform="translate(1081,960)" d="m0 0h1v5h-47l2-2 6-1v2h38z" fill="#C7CBCD"/>
<path transform="translate(953,479)" d="m0 0 2 1-15 20-2 1 1-5 11-14z" fill="#2F334B"/>
<path transform="translate(1109,919)" d="m0 0 8 4 8 8 3 4-1 4-7-9-7-6-5-3z" fill="#32364D"/>
<path transform="translate(673,750)" d="m0 0 2 1v16l-3 4-3 1h-9v-1l12-2z" fill="#4C4D5C"/>
<path transform="translate(634,241)" d="m0 0h1v30h-9v-1l7-1v-16z" fill="#1F2946"/>
<path transform="translate(140,928)" d="m0 0 2 1-8 11-5 11-2 4-1-4 8-16z" fill="#31344B"/>
<path transform="translate(168,965)" d="m0 0h31v1h-16v2h-13z" fill="#2C324A"/>
<path transform="translate(717,766)" d="m0 0h19l12 1v1l-32 1z" fill="#D3CFCF"/>
<path transform="translate(146,593)" d="m0 0 2 4-7 22h-1l1-10z" fill="#36394F"/>
<path transform="translate(718,372)" d="m0 0h5l-1 2h33l1 2h-38z" fill="#D5D0D0"/>
<path transform="translate(1084,941)" d="m0 0 2 4-1 19-2-1v-11l1-6h-2v5l-5-4h3v-4z" fill="#BFCACA"/>
<path transform="translate(204,480)" d="m0 0v3l-11 14-4 2 7-11 6-7z" fill="#262A43"/>
<path transform="translate(716,56)" d="m0 0h16l2 4-1 6h-1v-7l-22-1v-1z" fill="#515765"/>
<path transform="translate(551,439)" d="m0 0 6 1 31 1v1l-32 1-5-3z" fill="#626472"/>
<path transform="translate(869,236)" d="m0 0h1l1 32 1 1 7 1v1l-11 1z" fill="#212C4A"/>
<path transform="translate(766,218)" d="m0 0h5v1l27 1v1h-38l1-2z" fill="#60616F"/>
<path transform="translate(829,369)" d="m0 0h7l3 5-1 22h-1l-1-25h-7z" fill="#494B5C"/>
<path transform="translate(716,698)" d="m0 0 42 1v1l-41 1-2 1z" fill="#5C5E6D"/>
<path transform="translate(932,641)" d="m0 0 3 1 9 11 6 7-1 2-8-8-9-12z" fill="#D4CFCF"/>
<path transform="translate(719,601)" d="m0 0h9l7 1 1 2h-19v-2z" fill="#E3E1E0"/>
<path transform="translate(716,369)" d="m0 0h28v1l-22 1-5 1-1 5-3-1 2-6z" fill="#4D4E5D"/>
<path transform="translate(918,525)" d="m0 0 1 2-1 4h2l2-6h2l-2 5-3 10-1-2h-2l1-12z" fill="#595B69"/>
<path transform="translate(467,218)" d="m0 0h4l-1 29h-1l-1-21-1-6-2-1z" fill="#3E4155"/>
<path transform="translate(486,605)" d="m0 0h20l3 2-9 1-15-1z" fill="#606572"/>
<path transform="translate(315,281)" d="m0 0h10l8 1v1l-21 1-1 4h-1v-5z" fill="#333A52"/>
<path transform="translate(648,205)" d="m0 0h10v1l17 1v1h-28z" fill="#626472"/>
<path transform="translate(160,939)" d="m0 0 5 2 9 8-1 3-11-9z" fill="#2D324B"/>
<path transform="translate(307,481)" d="m0 0h4v18l-2 2-1-17z" fill="#1D223F"/>
<path transform="translate(968,465)" d="m0 0 2 1-14 13-3-1 9-9z" fill="#33374E"/>
<path transform="translate(580,39)" d="m0 0h1l1 16 1 2-4-2-1-1v-11h2z" fill="#585967"/>
<path transform="translate(664,697)" d="m0 0h9l2 2v12l-2 3-1-12-1-3-7-1z" fill="#3A3E52"/>
<path transform="translate(478,369)" d="m0 0h33v6l-4-4-29-1z" fill="#4A4A59"/>
<path transform="translate(855,256)" d="m0 0h1v15l-3-1v-13z" fill="#444557"/>
<path transform="translate(228,945)" d="m0 0 2 4 2 16-3-1-2-17z" fill="#34384F"/>
<path transform="translate(270,810)" d="m0 0 7 1v1l-16 2h-7l2-2z" fill="#393F55"/>
<path transform="translate(523,263)" d="m0 0h1l1 8h-30v-1l28-1z" fill="#2A3450"/>
<path transform="translate(500,437)" d="m0 0 8 1v2h-20l2-2h8z" fill="#DCD8D8"/>
<path transform="translate(896,281)" d="m0 0h17l2 2-7 1-15-1z" fill="#3F485B"/>
<path transform="translate(392,697)" d="m0 0 23 1v1l-21 1-5 2 1-4z" fill="#27314D"/>
<path transform="translate(755,371)" d="m0 0h19l-2 3-17 1-1-2z" fill="#FAFBFA"/>
<path transform="translate(1129,689)" d="m0 0h2v11l-2 9h-1v-10z" fill="#4D4E5E"/>
<path transform="translate(1075,510)" d="m0 0 3 1 6 11-1 4-8-14z" fill="#2E324A"/>
<path transform="translate(161,554)" d="m0 0 1 3-5 12-2-1 1-5 4-8z" fill="#252943"/>
<path transform="translate(467,268)" d="m0 0 3 3h-32v-1l28-1z" fill="#202B49"/>
<path transform="translate(550,948)" d="m0 0h1l1 12 5 2v2h-8z" fill="#1F2947"/>
<path transform="translate(387,763)" d="m0 0 5 5 12 2v1h-13l-4-4z" fill="#4E4E5D"/>
<path transform="translate(553,369)" d="m0 0h7l-1 2-5 1-3 8h-2l1-6z" fill="#535463"/>
<path transform="translate(917,944)" d="m0 0h2l-1 12-2 3h-2l2-10z" fill="#535565"/>
<path transform="translate(411,218)" d="m0 0h2l-1 4-1-1-27-1v-1z" fill="#484959"/>
<path transform="translate(950,662)" d="m0 0 7 6 7 7 1 3-4-2-9-10z" fill="#C9CBCD"/>
<path transform="translate(1027,457)" d="m0 0 5 2 8 6v2l-5-2-8-6z" fill="#2A2F49"/>
<path transform="translate(937,499)" d="m0 0 2 3-6 10-3-2z" fill="#3E4156"/>
<path transform="translate(538,218)" d="m0 0 4 2-3 1v7l-2 1-1-6v-4z" fill="#2D324B"/>
<path transform="translate(837,585)" d="m0 0h1v20l-1 1h-5l4-2z" fill="#484858"/>
<path transform="translate(553,533)" d="m0 0 3 1 1 2h-4l-2 9h-2v-6z" fill="#555665"/>
<path transform="translate(1076,948)" d="m0 0 4 1 2 3 1 9-2-1-2-7z" fill="#4D4F60"/>
<path transform="translate(241,811)" d="m0 0h13l2 2-3 3v-2l-11-1z" fill="#575867"/>
<path transform="translate(387,437)" d="m0 0 4 1 6 4v1h-6l-4-4z" fill="#47495A"/>
<path transform="translate(668,368)" d="m0 0 5 1 2 4-2 3-1-5-10-1v-1z" fill="#4A4C5D"/>
<path transform="translate(845,218)" d="m0 0h11l-1 6-3-3-8-1z" fill="#394152"/>
<path transform="translate(575,54)" d="m0 0 5 1 1 2h-17v-1z" fill="#222A46"/>
<path transform="translate(1107,576)" d="m0 0 2 3 2 6v6l-2-2-3-10z" fill="#3E4257"/>
<path transform="translate(1040,466)" d="m0 0 4 2 4 5h-4v-2l-4-2z" fill="#3D4258"/>
<path transform="translate(552,698)" d="m0 0 5 1-3 1-3 10h-1v-7z" fill="#373C53"/>
<path transform="translate(403,606)" d="m0 0m-3 0 12 2v1h-11l-10-1v-1z" fill="#CCCDCE"/>
<path transform="translate(391,369)" d="m0 0h5l-7 7h-2l1-4z" fill="#43485C"/>
</svg>
