<svg xmlns="http://www.w3.org/2000/svg" width="36.665" height="31.429" viewBox="0 0 36.665 31.429">
  <g id="Grupo_9014" data-name="Grupo 9014" transform="translate(-10.477 -15.714)">
    <g id="Grupo_9013" data-name="Grupo 9013">
      <path id="Vector" d="M30.949,4.634A2.35,2.35,0,0,1,33.386,7q.014,8.083,0,16.165a2.348,2.348,0,0,1-2.365,2.363c-.1.005-.207,0-.311,0q-14.031,0-28.061,0a2.669,2.669,0,0,1-1.833-.584A2.144,2.144,0,0,1,.007,23.3C0,19.761-.007,16.224.011,12.686a2.309,2.309,0,0,1,2.347-2.244c.387-.007.774,0,1.22,0V9.983q0-3.738,0-7.478A2.348,2.348,0,0,1,6.134,0Q16.689,0,27.246,0a2.364,2.364,0,0,1,2.566,2.5c0,.691,0,1.381,0,2.127h0C30.229,4.634,30.589,4.63,30.949,4.634Zm.018,18.546V6.983a.551.551,0,0,0-.066-.016c-2.885,0-5.769-.009-8.654,0a.614.614,0,0,0-.4.224c-1.236,1.487-2.475,2.973-3.684,4.482a2.785,2.785,0,0,1-2.339,1.1c-4.321-.015-8.642-.007-12.962-.007H2.395V23.179H30.967ZM6.184,10.438c3.233,0,6.466,0,9.7-.009a.66.66,0,0,0,.429-.238C17.557,8.7,18.8,7.2,20.021,5.684a2.673,2.673,0,0,1,2.24-1.056c1.578.016,3.155,0,4.733,0H27.4V2.348H5.979v8.066h0A1.8,1.8,0,0,0,6.184,10.438Z" transform="translate(10.477 15.714)" fill="#182e54" style="isolation: isolate"/>
      <path id="Ellipse_15" data-name="Ellipse 15" d="M0,7.857a7.857,7.857,0,1,1,7.857,7.857A7.857,7.857,0,0,1,0,7.857Z" transform="translate(31.428 31.429)" fill="#fff" style="isolation: isolate"/>
    </g>
    <path id="Vector-2" data-name="Vector" d="M4.583,0a.7.7,0,0,0-.705.705V3.878H.705a.705.705,0,1,0,0,1.41H3.878V8.462a.705.705,0,1,0,1.41,0V5.288H8.462a.705.705,0,1,0,0-1.41H5.288V.705A.7.7,0,0,0,4.583,0Z" transform="translate(34.703 34.702)" fill="#182e54" style="isolation: isolate"/>
  </g>
</svg>
