   <svg width="20" height="20" viewBox="0 0 30 30" fill="none" xmlns="http://www.w3.org/2000/svg">
                  <path
                    fill-rule="evenodd"
                    clip-rule="evenodd"
                    d="M20.6411 1.37646C18.8601 0.620199 16.901 0.201843 14.8442 0.201843C6.64683 0.201843 0.00198364 6.84669 0.00198364 15.044C0.00198364 23.2414 6.64683 29.8862 14.8442 29.8862H26.7179C27.5052 29.8862 28.2602 29.5735 28.8169 29.0168C29.3736 28.4601 29.6864 27.7051 29.6864 26.9178V15.044C29.6864 13.7322 29.5162 12.4601 29.1967 11.2487C28.3411 11.7207 27.3709 12.0106 26.3384 12.0659C26.5884 13.0305 26.7179 14.0306 26.7179 15.044V26.9178H14.8442C11.6951 26.9178 8.67492 25.6668 6.44816 23.44C4.2214 21.2133 2.97042 18.1931 2.97042 15.044C2.97042 11.8949 4.2214 8.87478 6.44816 6.64802C8.67492 4.42126 11.6951 3.17028 14.8442 3.17028C16.432 3.17028 17.987 3.48831 19.4241 4.0891C19.6232 3.08575 20.0471 2.16332 20.6411 1.37646ZM13.8269 18.4174C14.102 18.1577 14.4659 18.0129 14.8442 18.0125H19.2968L19.4705 18.0229C19.8461 18.0675 20.1905 18.254 20.4333 18.5441C20.6762 18.8342 20.799 19.206 20.7768 19.5837C20.7547 19.9613 20.5891 20.3162 20.3141 20.5759C20.039 20.8356 19.6751 20.9805 19.2968 20.9809H14.8442L14.6705 20.9705C14.2949 20.9258 13.9505 20.7394 13.7077 20.4493C13.4648 20.1592 13.342 19.7874 13.3641 19.4097C13.3863 19.0321 13.5519 18.6771 13.8269 18.4174ZM9.34201 12.5103C9.62036 12.232 9.99788 12.0756 10.3915 12.0756H19.2968C19.6905 12.0756 20.068 12.232 20.3463 12.5103C20.6247 12.7887 20.781 13.1662 20.781 13.5598C20.781 13.9535 20.6247 14.331 20.3463 14.6093C20.068 14.8877 19.6905 15.044 19.2968 15.044H10.3915C9.99788 15.044 9.62036 14.8877 9.34201 14.6093C9.06367 14.331 8.9073 13.9535 8.9073 13.5598C8.9073 13.1662 9.06367 12.7887 9.34201 12.5103Z"
                    fill="#718096"
                  />
                  <circle cx="25.9764" cy="5.39637" r="3.71055" fill="#EC2617" />
                </svg>
