<svg xmlns="http://www.w3.org/2000/svg" xmlns:xlink="http://www.w3.org/1999/xlink" width="22" height="22" viewBox="0 0 22 22">
  <defs>
    <clipPath id="clip-path">
      <rect id="Capa_1" width="22" height="22" fill="none" style="isolation: isolate"/>
    </clipPath>
  </defs>
  <g id="Group_254" data-name="Group 254" transform="translate(0 -2)" style="isolation: isolate">
    <g id="Capa_1-2" data-name="Capa_1" transform="translate(0 2)" clip-path="url(#clip-path)" style="isolation: isolate">
      <rect id="Capa_1-3" data-name="Capa_1" width="22" height="22" fill="none" style="isolation: isolate"/>
      <path id="Vector" d="M11.952.426c1.611,1.6,3.209,3.21,4.822,4.806A1.256,1.256,0,0,1,17.2,6.261c-.023.385,0,.773-.006,1.16a.859.859,0,1,1-1.717,0c0-.172,0-.343,0-.547h-.233c-.766,0-1.532,0-2.3,0a2.58,2.58,0,0,1-2.622-2.627c0-.759,0-1.518,0-2.277V1.719H2.7a.872.872,0,0,0-.973.964V19.307a.873.873,0,0,0,.967.97c1.246,0,2.491,0,3.737,0a.858.858,0,0,1,.829.6.823.823,0,0,1-.322.947,1,1,0,0,1-.5.163c-1.317.013-2.634.021-3.951,0A2.565,2.565,0,0,1,.013,19.461C0,17.778.01,16.1.01,14.414.009,10.525.028,6.637,0,2.75A2.646,2.646,0,0,1,2.19.032c.019,0,.036-.021.053-.032h9.106A4.3,4.3,0,0,1,11.952.426ZM12.046,3c0,.468-.027.953.009,1.432a.808.808,0,0,0,.79.715c.449.013.9,0,1.348,0h0Z" transform="translate(0)" fill="#fff" style="isolation: isolate"/>
      <path id="Vector-2" data-name="Vector" d="M12.464,4.088c-2.276,2.288-4.577,4.552-6.834,6.859A5.35,5.35,0,0,1,2.479,12.62c-.48.068-.954.185-1.43.278a.849.849,0,0,1-1.032-1c.137-.745.278-1.49.449-2.227A4.128,4.128,0,0,1,1.609,7.661Q5.29,3.979,8.971.3A.853.853,0,0,1,10.263.293q1.181,1.172,2.35,2.356a2.784,2.784,0,0,1,.294.436v.387h0A4.663,4.663,0,0,1,12.464,4.088ZM2.3,10.9A3.321,3.321,0,0,0,4.287,9.854c2.1-2.136,4.233-4.247,6.355-6.366a1.132,1.132,0,0,1,.2-.133L9.58,2.092c-.038.046-.084.111-.139.166C7.3,4.4,5.162,6.561,3,8.687a3.507,3.507,0,0,0-1.028,2.27h0C2.093,10.936,2.2,10.913,2.3,10.9Z" transform="translate(9.091 9.073)" fill="#fff" style="isolation: isolate"/>
      <path id="Vector-3" data-name="Vector" d="M9.434,0a.845.845,0,0,1,.846.655.83.83,0,0,1-.417.946.989.989,0,0,1-.429.111q-4.281.009-8.563,0A.853.853,0,0,1,0,.849.853.853,0,0,1,.871,0C2.3,0,3.733,0,5.163,0h0Q7.3,0,9.434,0Z" transform="translate(3.446 8.248)" fill="#fff" style="isolation: isolate"/>
      <path id="Vector-4" data-name="Vector" d="M7.792,0A.849.849,0,0,1,8.61.583a.815.815,0,0,1-.282.94A1.027,1.027,0,0,1,7.8,1.71c-2.311.013-4.622.01-6.933.007A.851.851,0,0,1,0,.862.854.854,0,0,1,.88,0C2.025,0,3.17,0,4.315,0S6.633,0,7.792,0Z" transform="translate(3.446 11.684)" fill="#fff" style="isolation: isolate"/>
      <path id="Vector-5" data-name="Vector" d="M.923,1.719A.861.861,0,1,1,.927,0q1.78,0,3.56,0a.861.861,0,1,1,0,1.717c-.593,0-1.187,0-1.78,0h0C2.109,1.719,1.516,1.721.923,1.719Z" transform="translate(3.446 15.121)" fill="#fff" style="isolation: isolate"/>
    </g>
  </g>
</svg>
