<svg xmlns="http://www.w3.org/2000/svg" width="322.982" height="289.875" xmlns:v="https://vecta.io/nano"><path d="M165.408.634l-10.509 2.71-129.478 33.39-10.509 2.71C4.291 42.197-2.098 53.026.629 63.653L46.2 240.366c2.753 10.621 13.582 17.01 24.209 14.283l.027-.007 150.442-38.8.027-.007c10.621-2.753 17.01-13.582 14.283-24.209L189.616 14.912C186.861 4.294 176.033-2.092 165.408.634z" fill="#f2f2f2"/><path d="M166.838 6.17L154.39 9.38 28.79 41.77l-12.447 3.21C8.779 46.94 4.229 54.652 6.172 62.22l45.571 176.713c1.961 7.563 9.673 12.112 17.241 10.169l.027-.007 150.442-38.8.027-.007c7.564-1.96 12.114-9.672 10.171-17.24L184.077 16.341c-1.96-7.564-9.672-12.114-17.24-10.171z" fill="#fff"/><path d="M157.439 63.392l-76.1 19.626a3.31 3.31 0 0 1-1.653-6.41l76.1-19.626a3.31 3.31 0 1 1 1.653 6.41zm16.009 7.41L84.123 93.837a3.31 3.31 0 1 1-1.653-6.41l89.325-23.035a3.31 3.31 0 1 1 1.653 6.41zm-3.509 41.068l-76.11 19.624a3.31 3.31 0 1 1-1.653-6.41l76.1-19.626a3.31 3.31 0 0 1 1.653 6.41zm16.01 7.407l-89.326 23.035a3.31 3.31 0 1 1-1.653-6.41l89.326-23.037a3.31 3.31 0 1 1 1.653 6.41zm-3.508 41.068l-76.1 19.626a3.31 3.31 0 0 1-1.653-6.41l76.1-19.626a3.31 3.31 0 0 1 1.653 6.41zm16.009 7.407l-89.325 23.035a3.31 3.31 0 1 1-1.653-6.41l89.325-23.035a3.31 3.31 0 0 1 1.653 6.41z" fill="#f2f2f2"/><path d="M68.341 103.144l-26.933 6.945a1.59 1.59 0 0 1-1.933-1.14l-6.183-23.974a1.59 1.59 0 0 1 1.14-1.933l26.933-6.945a1.59 1.59 0 0 1 1.933 1.141l6.182 23.974a1.59 1.59 0 0 1-1.139 1.932zm12.501 48.475l-26.933 6.945a1.59 1.59 0 0 1-1.933-1.141l-6.182-23.972a1.59 1.59 0 0 1 1.141-1.933l26.933-6.945a1.59 1.59 0 0 1 1.933 1.14l6.182 23.974a1.59 1.59 0 0 1-1.141 1.933zm12.501 48.476l-26.933 6.946a1.59 1.59 0 0 1-1.933-1.141l-6.182-23.974a1.59 1.59 0 0 1 1.141-1.933l26.933-6.945a1.59 1.59 0 0 1 1.933 1.141l6.182 23.974a1.59 1.59 0 0 1-1.14 1.933zM270.372 45.424H114.953c-10.972.013-19.863 8.904-19.876 19.876v182.5c.015 10.97 8.906 19.859 19.876 19.872h155.419c10.972-.013 19.863-8.904 19.876-19.876v-182.5c-.013-10.972-8.904-19.863-19.876-19.876z" fill="#e6e6e6"/><path d="M270.372 51.146H114.951c-7.813.009-14.145 6.341-14.154 14.154v182.5c.012 7.811 6.343 14.14 14.154 14.149h155.42c7.813-.009 14.145-6.341 14.154-14.154V65.3c-.009-7.813-6.34-14.145-14.153-14.154z" fill="#fff"/><circle cx="286.7" cy="253.593" r="36.282" fill="#ff7829"/><path d="M304.053 248.86h-12.62v-12.62c0-2.614-2.119-4.732-4.732-4.732s-4.732 2.119-4.732 4.732v12.62h-12.62c-2.587.038-4.664 2.145-4.664 4.732s2.077 4.695 4.664 4.733h12.62v12.62c0 2.614 2.119 4.732 4.733 4.732s4.732-2.119 4.732-4.732v-12.62h12.62c2.587-.038 4.664-2.145 4.664-4.733s-2.077-4.695-4.664-4.733z" fill="#fff"/><g fill="#e6e6e6"><use href="#B"/><use href="#C"/><use href="#B" y="50.061"/><use href="#C" y="50.061"/><path d="M150.781 167.669h-27.814a1.59 1.59 0 0 1-1.587-1.587v-24.755a1.59 1.59 0 0 1 1.587-1.587h27.814a1.59 1.59 0 0 1 1.587 1.587v24.758a1.59 1.59 0 0 1-1.587 1.584zm0 50.061h-27.814a1.59 1.59 0 0 1-1.587-1.587v-24.759a1.59 1.59 0 0 1 1.587-1.587h27.814a1.59 1.59 0 0 1 1.587 1.587v24.758a1.59 1.59 0 0 1-1.587 1.588z"/></g><path d="M247.069 95.698h-57.945a3.31 3.31 0 1 1 0-6.62h57.945a3.31 3.31 0 1 1 0 6.62zm13.649 11.171h-71.6a3.31 3.31 0 1 1 0-6.62h71.6a3.31 3.31 0 1 1 0 6.62z" fill="#ccc"/><path d="M176.299 120.407h-53.42a1.59 1.59 0 0 1-1.587-1.587V77.128a1.59 1.59 0 0 1 1.587-1.587h53.42a1.59 1.59 0 0 1 1.587 1.587v41.691a1.59 1.59 0 0 1-1.587 1.588z" fill="#df3d24"/><defs ><path id="B" d="M246.982 151.426h-78.595a3.31 3.31 0 1 1 0-6.62h78.595a3.31 3.31 0 1 1 0 6.62z"/><path id="C" d="M260.635 162.597h-92.248a3.31 3.31 0 1 1 0-6.62h92.248a3.31 3.31 0 1 1 0 6.62z"/></defs></svg>