  <svg width="21" height="21" viewBox="0 0 21 21" fill="none" xmlns="http://www.w3.org/2000/svg">
                  <path
                    d="M10.3336 18.0927C11.3521 18.094 12.3608 17.8941 13.3017 17.5043C14.2426 17.1146 15.0972 16.5427 15.8164 15.8216C16.5375 15.1024 17.1093 14.2478 17.4991 13.3069C17.8888 12.366 18.0888 11.3573 18.0875 10.3389C18.0888 9.32043 17.8888 8.31178 17.4991 7.37087C17.1093 6.42996 16.5375 5.57534 15.8164 4.85613C15.0972 4.13504 14.2426 3.56318 13.3017 3.17343C12.3608 2.78368 11.3521 2.58372 10.3336 2.58504C9.31521 2.58374 8.30656 2.78371 7.36565 3.17346C6.42474 3.56321 5.57012 4.13505 4.85091 4.85613C4.12983 5.57534 3.55798 6.42996 3.16823 7.37087C2.77848 8.31178 2.57851 9.32043 2.57981 10.3389C2.57849 11.3573 2.77845 12.366 3.1682 13.3069C3.55796 14.2478 4.12981 15.1024 4.85091 15.8216C5.57012 16.5427 6.42474 17.1145 7.36565 17.5043C8.30656 17.894 9.31521 18.094 10.3336 18.0927Z"
                    stroke="#3EBF4C"
                    stroke-width="1.47692"
                    stroke-linejoin="round"
                  />
                  <path
                    d="M7.23267 10.3388L9.55882 12.6649L14.2111 8.01261"
                    stroke="#3EBF4C"
                    stroke-width="1.47692"
                    stroke-linecap="round"
                    stroke-linejoin="round"
                  />
                </svg>
