     <svg width="21" height="21" viewBox="0 0 21 21" fill="none" xmlns="http://www.w3.org/2000/svg">
                  <path
                    d="M2.58459 10.3384C2.58459 11.3567 2.78515 12.365 3.17482 13.3057C3.56449 14.2464 4.13563 15.1012 4.85564 15.8212C5.57565 16.5412 6.43043 17.1124 7.37117 17.5021C8.31191 17.8917 9.32019 18.0923 10.3384 18.0923C11.3567 18.0923 12.365 17.8917 13.3057 17.5021C14.2464 17.1124 15.1012 16.5412 15.8212 15.8212C16.5412 15.1012 17.1124 14.2464 17.5021 13.3057C17.8917 12.365 18.0923 11.3567 18.0923 10.3384C18.0923 8.28199 17.2754 6.30977 15.8212 4.85564C14.3671 3.40152 12.3949 2.58459 10.3384 2.58459C8.28199 2.58459 6.30977 3.40152 4.85564 4.85564C3.40152 6.30977 2.58459 8.28199 2.58459 10.3384Z"
                    stroke="#F8C83C"
                    stroke-width="1.47692"
                    stroke-linecap="round"
                    stroke-linejoin="round"
                  />
                  <path
                    d="M10.3384 6.03076V10.3385L12.923 12.9231"
                    stroke="#F8C83C"
                    stroke-width="1.47692"
                    stroke-linecap="round"
                    stroke-linejoin="round"
                  />
                </svg>
