<svg width="19" height="19" viewBox="0 0 19 19" fill="none" xmlns="http://www.w3.org/2000/svg">
<rect x="1" y="1" width="17" height="17" rx="4" fill="white"/>
<path d="M12.8059 8.31934L9.50038 11.6249L6.19482 8.31934" stroke="#BEC5CF" stroke-width="1.5" stroke-linecap="round" stroke-linejoin="round"/>
<path d="M1 9.5C1 5.49272 1 3.48956 2.24478 2.24478C3.48956 1 5.49367 1 9.5 1C13.5073 1 15.5104 1 16.7552 2.24478C18 3.48956 18 5.49367 18 9.5C18 13.5073 18 15.5104 16.7552 16.7552C15.5104 18 13.5063 18 9.5 18C5.49272 18 3.48956 18 2.24478 16.7552C1 15.5104 1 13.5063 1 9.5Z" stroke="#BEC5CF" stroke-width="1.5" stroke-linecap="round" stroke-linejoin="round"/>
</svg>
