<svg width="15" height="15" viewBox="0 0 15 15" fill="none" xmlns="http://www.w3.org/2000/svg">
<circle cx="7.55176" cy="7.30371" r="6.41667" fill="#1E9EA6" fill-opacity="0.08" stroke="#DFF1F3" stroke-width="1.16667"/>
<path d="M8.17516 2.8584C8.81352 2.8584 9.1327 3.29287 9.1327 3.79069C9.1327 4.41238 8.57819 4.98738 7.85646 4.98738C7.25192 4.98738 6.89939 4.63009 6.91607 4.03937C6.91607 3.54249 7.33576 2.8584 8.17516 2.8584ZM6.21101 12.3862C5.70699 12.3862 5.33779 12.0756 5.69032 10.7074L6.26865 8.28161C6.36917 7.89383 6.38585 7.73805 6.26865 7.73805C6.11764 7.73805 5.46403 8.00578 5.07673 8.27018L4.8252 7.85095C6.05047 6.80957 7.4601 6.19931 8.06512 6.19931C8.56866 6.19931 8.6525 6.80576 8.40097 7.73805L7.73831 10.2877C7.62112 10.7379 7.67114 10.8932 7.78881 10.8932C7.93983 10.8932 8.43527 10.7064 8.92214 10.3182L9.20797 10.706C8.01605 11.9193 6.71408 12.3862 6.21101 12.3862Z" fill="#1F335E" fill-opacity="0.73"/>
</svg>
