<svg width="21" height="21" viewBox="0 0 21 21" fill="none" xmlns="http://www.w3.org/2000/svg">
<path d="M10.3422 18.092C11.3607 18.0933 12.3693 17.8934 13.3102 17.5036C14.2512 17.1139 15.1058 16.542 15.825 15.8209C16.5461 15.1017 17.1179 14.2471 17.5077 13.3062C17.8974 12.3653 18.0974 11.3566 18.0961 10.3382C18.0974 9.31975 17.8974 8.3111 17.5076 7.37019C17.1179 6.42928 16.546 5.57466 15.825 4.85545C15.1058 4.13436 14.2512 3.5625 13.3102 3.17275C12.3693 2.783 11.3607 2.58304 10.3422 2.58436C9.32379 2.58306 8.31513 2.78303 7.37422 3.17278C6.43331 3.56253 5.57869 4.13438 4.85948 4.85545C4.13841 5.57466 3.56656 6.42928 3.17681 7.37019C2.78706 8.3111 2.58709 9.31975 2.58839 10.3382C2.58707 11.3566 2.78703 12.3653 3.17678 13.3062C3.56653 14.2471 4.13839 15.1017 4.85948 15.8209C5.57869 16.542 6.43331 17.1138 7.37422 17.5036C8.31513 17.8933 9.32379 18.0933 10.3422 18.092Z" stroke="#D42D27" stroke-width="1.47692" stroke-linejoin="round"/>
<path d="M10.3394 6.03076V11.448M10.3394 14.6461V14.1537" stroke="#D42D27" stroke-width="1.47692" stroke-linecap="round" stroke-linejoin="round"/>
</svg>
